<mxfile host="65bd71144e">
    <diagram id="mI7RoPI0ebk-dFwX9OSB" name="Page-1">
        <mxGraphModel dx="847" dy="514" grid="1" gridSize="10" guides="1" tooltips="1" connect="1" arrows="1" fold="1" page="1" pageScale="1" pageWidth="1169" pageHeight="827" math="0" shadow="0">
            <root>
                <mxCell id="0"/>
                <mxCell id="1" parent="0"/>
                <mxCell id="2" value="Signer A" style="shape=umlActor;verticalLabelPosition=bottom;verticalAlign=top;html=1;outlineConnect=0;" vertex="1" parent="1">
                    <mxGeometry x="200" y="80" width="30" height="60" as="geometry"/>
                </mxCell>
                <mxCell id="3" value="Signer B" style="shape=umlActor;verticalLabelPosition=bottom;verticalAlign=top;html=1;outlineConnect=0;" vertex="1" parent="1">
                    <mxGeometry x="200" y="210" width="30" height="60" as="geometry"/>
                </mxCell>
                <mxCell id="4" value="Signer C" style="shape=umlActor;verticalLabelPosition=bottom;verticalAlign=top;html=1;outlineConnect=0;" vertex="1" parent="1">
                    <mxGeometry x="200" y="330" width="30" height="60" as="geometry"/>
                </mxCell>
                <mxCell id="5" value="Pool&lt;br&gt;&lt;br&gt;- Verify signers has the right&amp;nbsp;&lt;br&gt;to update the pool&lt;br&gt;- Check signature is valid&amp;nbsp;&lt;br&gt;- Check deadline&amp;nbsp;&lt;span style=&quot;background-color: transparent;&quot;&gt;has not been exceeded&lt;/span&gt;" style="shape=cylinder3;whiteSpace=wrap;html=1;boundedLbl=1;backgroundOutline=1;size=15;" vertex="1" parent="1">
                    <mxGeometry x="630" y="260" width="200" height="180" as="geometry"/>
                </mxCell>
                <mxCell id="6" value="Factory" style="shape=cylinder3;whiteSpace=wrap;html=1;boundedLbl=1;backgroundOutline=1;size=15;" vertex="1" parent="1">
                    <mxGeometry x="630" y="40" width="200" height="110" as="geometry"/>
                </mxCell>
                <mxCell id="7" value="Frontend&lt;br&gt;&lt;br&gt;Data :&lt;br&gt;- Verification Key&lt;br&gt;- Deadline&lt;br&gt;- Pool address&lt;br&gt;- Token Id" style="whiteSpace=wrap;html=1;aspect=fixed;" vertex="1" parent="1">
                    <mxGeometry x="400" y="140" width="130" height="130" as="geometry"/>
                </mxCell>
                <mxCell id="8" value="" style="endArrow=classic;html=1;entryX=0;entryY=0.182;entryDx=0;entryDy=0;entryPerimeter=0;" edge="1" parent="1" source="2" target="7">
                    <mxGeometry width="50" height="50" relative="1" as="geometry">
                        <mxPoint x="410" y="290" as="sourcePoint"/>
                        <mxPoint x="460" y="240" as="targetPoint"/>
                    </mxGeometry>
                </mxCell>
                <mxCell id="14" value="Sign" style="edgeLabel;html=1;align=center;verticalAlign=middle;resizable=0;points=[];" vertex="1" connectable="0" parent="8">
                    <mxGeometry x="-0.1505" y="-1" relative="1" as="geometry">
                        <mxPoint as="offset"/>
                    </mxGeometry>
                </mxCell>
                <mxCell id="12" value="" style="endArrow=classic;html=1;entryX=-0.027;entryY=0.436;entryDx=0;entryDy=0;entryPerimeter=0;" edge="1" parent="1" source="3" target="7">
                    <mxGeometry width="50" height="50" relative="1" as="geometry">
                        <mxPoint x="410" y="290" as="sourcePoint"/>
                        <mxPoint x="460" y="240" as="targetPoint"/>
                    </mxGeometry>
                </mxCell>
                <mxCell id="15" value="Sign" style="edgeLabel;html=1;align=center;verticalAlign=middle;resizable=0;points=[];" vertex="1" connectable="0" parent="12">
                    <mxGeometry x="-0.2454" y="4" relative="1" as="geometry">
                        <mxPoint y="1" as="offset"/>
                    </mxGeometry>
                </mxCell>
                <mxCell id="13" value="" style="endArrow=classic;html=1;" edge="1" parent="1" source="4" target="7">
                    <mxGeometry width="50" height="50" relative="1" as="geometry">
                        <mxPoint x="410" y="290" as="sourcePoint"/>
                        <mxPoint x="460" y="240" as="targetPoint"/>
                    </mxGeometry>
                </mxCell>
                <mxCell id="16" value="Sign" style="edgeLabel;html=1;align=center;verticalAlign=middle;resizable=0;points=[];" vertex="1" connectable="0" parent="13">
                    <mxGeometry x="0.0721" relative="1" as="geometry">
                        <mxPoint as="offset"/>
                    </mxGeometry>
                </mxCell>
                <mxCell id="17" value="Submit the 3 signatures and data" style="endArrow=classic;html=1;exitX=0.5;exitY=1;exitDx=0;exitDy=0;entryX=0;entryY=0;entryDx=0;entryDy=52.5;entryPerimeter=0;" edge="1" parent="1" source="7" target="5">
                    <mxGeometry width="50" height="50" relative="1" as="geometry">
                        <mxPoint x="410" y="290" as="sourcePoint"/>
                        <mxPoint x="460" y="240" as="targetPoint"/>
                    </mxGeometry>
                </mxCell>
                <mxCell id="24" value="" style="endArrow=classic;html=1;exitX=0.5;exitY=1;exitDx=0;exitDy=0;exitPerimeter=0;entryX=0.5;entryY=0;entryDx=0;entryDy=0;entryPerimeter=0;" edge="1" parent="1" source="6" target="5">
                    <mxGeometry width="50" height="50" relative="1" as="geometry">
                        <mxPoint x="540" y="290" as="sourcePoint"/>
                        <mxPoint x="590" y="240" as="targetPoint"/>
                    </mxGeometry>
                </mxCell>
                <mxCell id="25" value="&lt;span style=&quot;color: rgb(63, 63, 63);&quot;&gt;Get list of authorize signers&lt;/span&gt;" style="edgeLabel;html=1;align=center;verticalAlign=middle;resizable=0;points=[];" vertex="1" connectable="0" parent="24">
                    <mxGeometry x="0.0727" relative="1" as="geometry">
                        <mxPoint as="offset"/>
                    </mxGeometry>
                </mxCell>
            </root>
        </mxGraphModel>
    </diagram>
</mxfile>